<svg width="700" height="503" viewBox="0 0 700 503" fill="none" xmlns="http://www.w3.org/2000/svg"><path d="M688.654 172.22L669.614 143.803C668.402 141.928 638.284 96.0557 627.206 80.765C612.84 60.714 609.378 57.3963 590.511 39.5091L588.088 37.201C580.645 30.1327 557.45 11.0915 556.585 10.3703L551.911 6.33121C545.334 0.705401 535.641 -1.31412 526.64 0.849653C517.639 3.01343 510.888 9.21624 508.984 16.8616L506.042 28.8345C505.523 29.9885 505.176 31.1425 504.484 32.2965L503.965 33.4505C503.619 34.316 503.099 35.3258 502.58 36.1913V36.3355L502.061 37.3453C501.368 38.4993 500.849 39.6533 500.157 40.8073L499.638 41.8171C499.118 42.6826 498.599 43.5481 498.08 44.2694C497.733 44.7021 497.56 45.1349 497.214 45.5676C496.695 46.2889 496.176 47.1544 495.656 47.8757L494.791 49.0297C494.099 50.0394 493.233 50.9049 492.541 51.9147C492.195 52.3475 491.848 52.7802 491.329 53.3572C490.81 53.9342 490.291 54.5112 489.771 55.0882C489.425 55.521 488.906 55.9537 488.56 56.5307C488.213 56.9635 487.694 57.3963 487.348 57.829L485.963 59.1273C485.617 59.56 485.098 59.8485 484.752 60.2813L483.194 61.7238C482.501 62.3008 481.982 62.8778 481.29 63.4548L480.251 64.3203C477.828 66.1956 475.405 68.0709 472.981 69.8019L471.77 70.6674L469.693 71.9657C469.173 72.2542 468.827 72.5427 468.308 72.8312L468.135 72.9754C467.442 73.4082 466.75 73.8409 466.231 74.1294C466.231 74.1294 466.058 74.2737 465.885 74.2737C464.154 75.2834 462.25 76.2932 460.346 77.303L459.48 77.7357C458.615 78.1685 457.749 78.6012 456.711 79.034L456.018 79.3225C452.903 80.765 449.787 81.919 446.671 83.073L446.325 83.2173C441.825 84.804 437.324 86.1023 432.478 87.1121H432.305C427.458 88.1218 422.612 88.9873 417.592 89.4201C403.918 90.7184 390.416 89.9971 377.088 86.9678L371.549 71.5329C363.933 50.7607 342.47 35.3258 316.852 32.008C304.736 30.4212 292.793 35.9028 287.773 45.2791L257.828 101.826C257.828 101.97 257.828 101.97 257.655 102.114C256.616 104.422 255.578 106.442 255.232 107.019C254.712 107.74 254.02 108.75 250.731 115.241C250.558 115.385 250.558 115.674 250.385 115.818L249 119.424C247.443 122.742 246.058 126.06 244.5 129.522C242.596 134.138 240.692 139.043 237.749 144.236C237.749 144.38 237.576 144.524 237.576 144.668L236.711 146.399C236.018 147.842 235.326 149.14 234.634 150.583L233.076 153.612C232.557 154.766 231.864 155.92 231.345 156.93L229.441 160.536C228.922 161.546 228.402 162.556 227.883 163.421L227.364 164.287C226.845 165.152 226.325 166.018 225.806 167.027C225.114 168.181 224.594 169.191 223.902 170.345L217.671 180.876L206.42 198.33C203.131 203.523 199.669 208.139 195.688 213.332C194.13 215.352 192.572 217.515 191.014 219.535C190.322 220.545 189.457 221.41 188.764 222.42L187.553 223.863C186.514 225.161 185.476 226.459 184.61 227.613L183.225 229.344C182.187 230.642 181.148 231.941 180.11 233.095L178.898 234.537C175.263 238.865 171.628 243.192 167.82 247.376L166.955 248.385C165.743 249.684 164.531 250.982 163.32 252.28L162.108 253.578C160.896 254.877 159.685 256.175 158.3 257.617L157.781 258.05C153.627 262.378 149.299 266.705 144.972 270.889L144.107 271.754C142.722 273.052 141.51 274.351 140.125 275.649L139.087 276.659L134.933 280.553C120.912 293.392 106.026 305.653 90.4481 317.049L27.6157 363.21C-0.77142 383.982 -7.86819 417.592 9.09482 450.77C14.2876 461.156 21.2113 470.1 30.212 478.322C45.9634 492.892 67.9461 501.114 94.2561 502.124C96.1601 502.124 97.891 502.268 99.795 502.268C121.432 502.268 143.933 497.363 163.666 488.131L514.004 325.56L567.663 301.181C572.163 299.306 641.746 270.167 662.171 255.165L663.556 254.155C684.5 238.865 688.827 235.691 696.27 219.968C701.636 208.572 702.847 189.531 688.654 172.22V172.22ZM482.155 81.4863C482.501 81.1978 482.848 81.0535 483.194 80.765L483.54 80.4765C486.482 78.457 489.252 76.4375 492.195 73.9852L493.233 73.1197C493.925 72.5427 494.791 71.8214 495.483 71.1002C495.829 70.8116 496.176 70.3789 496.522 70.0904L497.041 69.6576C497.56 69.2249 498.08 68.6479 498.599 68.2151L498.772 68.0709C499.118 67.7824 499.291 67.4939 499.638 67.2054L500.33 66.6283C500.849 66.1956 501.368 65.6186 501.888 65.1858C502.407 64.6088 502.926 64.1761 503.445 63.4548C503.965 62.8778 504.484 62.1566 505.176 61.4353C505.523 61.0025 506.042 60.4255 506.388 59.9928C507.254 58.8388 508.119 57.829 508.984 56.675L509.85 55.3767C510.542 54.5112 511.062 53.6457 511.754 52.636C512.1 52.2032 512.446 51.6262 512.792 51.1934C513.485 50.1837 514.004 49.3182 514.696 48.3084L514.87 48.0199L515.389 47.1544C516.254 45.8561 516.947 44.5579 517.639 43.1154L518.158 41.9613V41.8171C518.678 40.8073 519.197 39.6533 519.716 38.6436L520.409 37.3453C521.101 36.047 521.62 34.6045 522.139 33.162C522.139 33.0177 522.139 33.0177 522.313 32.8735C522.313 32.585 522.486 32.4407 522.486 32.1522L525.601 19.7466C526.467 16.1403 529.929 14.8421 531.313 14.5535C532.698 14.265 536.333 13.688 539.449 16.2846L544.295 20.3236C544.468 20.4679 568.009 39.7976 575.106 46.4331L577.529 48.7412C596.396 66.6284 598.819 68.9364 612.32 87.8333C623.225 102.98 654.036 150.006 654.382 150.583L670.652 174.673C658.536 180.299 629.456 193.714 590.338 211.89C546.545 199.917 514.523 174.529 495.31 136.735C482.501 111.346 479.732 88.5546 479.386 83.2173C479.559 83.073 479.732 83.073 479.905 82.9288C480.597 82.496 481.463 82.0633 482.155 81.4863V81.4863ZM303.351 50.9049C305.255 47.4429 309.582 45.4234 314.083 46.0004C333.296 48.4527 349.394 60.137 355.106 75.5719L357.183 81.0535C338.835 76.5817 311.487 71.9657 289.677 76.8702L303.351 50.9049V50.9049ZM39.0397 373.451L101.872 327.435C117.797 315.751 133.202 303.057 147.568 289.785C148.261 289.064 148.953 288.487 149.819 287.766C161.416 289.785 172.147 290.651 181.841 290.651C244.846 290.651 272.195 253.867 283.619 238.576L284.83 236.989C289.331 230.931 299.716 211.745 316.506 178.423C318.41 174.817 316.333 170.634 311.833 169.047C307.505 167.46 302.486 169.191 300.582 172.942C280.503 213.044 272.887 225.738 270.291 229.488L269.079 231.075C257.136 247.087 230.306 283.294 162.801 275.216C165.743 272.331 168.513 269.446 171.282 266.705L171.801 266.272C173.013 264.974 174.398 263.532 175.609 262.233L176.821 260.935C178.033 259.637 179.244 258.194 180.456 256.896L181.494 255.886C185.302 251.559 189.284 247.087 192.919 242.615L194.13 241.173L197.246 237.278L198.631 235.547L201.746 231.652L202.958 230.21C203.823 229.2 204.516 228.19 205.381 227.036C207.112 224.872 208.497 222.709 210.055 220.689C214.209 215.207 217.844 210.447 221.306 204.966L229.441 192.704L239.48 176.26C240.173 175.106 240.692 173.952 241.384 172.942C241.904 172.076 242.423 171.066 242.942 170.201L243.461 169.335C243.981 168.326 244.5 167.316 245.192 166.306L247.096 162.7C247.789 161.546 248.308 160.392 248.827 159.238L250.385 156.064L252.462 151.737L253.328 149.861C256.443 144.091 258.693 138.754 260.597 133.994C261.982 130.676 263.194 127.503 264.752 124.473C264.752 124.329 264.925 124.185 264.925 124.04L266.31 120.434C269.079 115.241 269.771 114.087 269.944 113.799C270.637 112.933 270.637 112.933 273.233 107.307L275.83 102.403C285.35 85.3811 316.16 87.5448 340.047 92.1609C336.585 99.2292 329.315 114.664 320.487 132.551C318.756 136.158 320.833 140.341 325.161 141.783C326.199 142.072 327.238 142.36 328.45 142.36C331.911 142.36 335.027 140.629 336.412 137.889C345.932 118.559 353.721 102.114 356.837 95.9114C360.125 96.7769 363.068 97.6424 365.318 98.3637C365.664 98.5079 366.011 98.7964 366.357 98.9407C366.703 99.0849 367.222 99.2292 367.568 99.3735C384.531 103.845 402.014 105.288 419.496 103.557C425.208 102.98 430.747 102.114 436.459 100.816H436.632C442.171 99.662 447.537 98.0752 452.73 96.1999L453.249 96.0557C456.538 94.9017 459.999 93.4591 463.115 92.0166C464.673 102.691 468.827 121.444 479.213 142.072C498.08 179.433 529.582 206.552 570.778 221.266C483.367 261.945 358.048 320.367 258.52 367.826C108.277 439.23 27.7888 448.318 26.9233 448.318H26.7502C26.0578 447.164 25.3655 446.01 24.8462 444.712C10.9988 417.448 16.3647 390.04 39.0397 373.451V373.451ZM680.519 214.342C674.46 226.892 672.903 228.046 652.305 243.048L650.92 244.058C631.88 258.05 560.566 287.766 559.873 288.054C559.7 288.054 559.7 288.199 559.527 288.199L505.696 312.721L155.184 475.149C109.315 496.498 63.965 487.843 42.8478 468.369C40.4245 466.205 38.1743 463.897 36.0972 461.445C59.2915 457.839 137.01 441.827 266.829 379.943C421.919 306.086 639.669 205.254 678.788 187.223C684.154 197.176 683.634 207.562 680.519 214.342V214.342Z" fill="white"></path></svg>