<?xml version="1.0" standalone="no"?>
<!DOCTYPE svg PUBLIC "-//W3C//DTD SVG 20010904//EN"
 "http://www.w3.org/TR/2001/REC-SVG-20010904/DTD/svg10.dtd">
<svg version="1.0" xmlns="http://www.w3.org/2000/svg"
 width="700.000000pt" height="700.000000pt" viewBox="0 0 700.000000 700.000000"
 preserveAspectRatio="xMidYMid meet">
<metadata>
Created by potrace 1.11, written by Peter Selinger 2001-2013
</metadata>
<g transform="translate(0.000000,700.000000) scale(0.100000,-0.100000)"
fill="#000000" stroke="none">
<path d="M5251 5998 c-89 -25 -150 -98 -175 -209 -33 -146 -140 -310 -278
-425 -123 -104 -348 -207 -498 -229 -25 -4 -49 -9 -54 -13 -5 -3 -80 -6 -165
-8 -147 -2 -295 14 -311 34 -4 4 -19 45 -35 92 -46 137 -102 218 -205 301
-140 112 -363 176 -488 140 -88 -26 -140 -73 -193 -176 -34 -67 -122 -233
-169 -320 -21 -38 -66 -124 -100 -190 -35 -66 -69 -130 -78 -142 -8 -13 -12
-23 -9 -23 3 0 -8 -26 -24 -57 -16 -32 -29 -66 -29 -75 0 -10 -5 -18 -12 -18
-6 0 -9 -3 -5 -6 18 -18 -323 -619 -413 -727 -6 -7 -30 -39 -55 -72 -24 -33
-53 -71 -64 -85 -11 -14 -33 -40 -48 -59 -168 -208 -433 -481 -613 -631 -30
-25 -74 -63 -99 -84 -36 -31 -316 -242 -471 -356 -14 -10 -70 -51 -125 -92
-55 -40 -111 -81 -125 -91 -121 -86 -161 -118 -225 -182 -72 -71 -113 -136
-150 -236 -24 -62 -28 -92 -31 -189 -2 -98 1 -128 22 -199 48 -163 145 -324
261 -431 55 -51 175 -134 219 -150 16 -6 42 -17 59 -25 63 -28 158 -52 280
-70 22 -3 87 -6 145 -6 299 1 446 42 877 246 63 30 117 55 118 55 1 0 58 26
126 59 118 55 169 79 304 141 33 15 94 43 135 63 41 19 98 45 125 57 28 12 91
42 140 65 50 23 117 55 150 70 33 15 92 42 130 60 39 18 99 46 135 63 36 16
101 46 145 67 44 20 139 64 210 97 72 33 135 63 140 67 6 4 28 15 50 23 22 9
93 41 158 72 64 31 119 56 121 56 2 0 59 26 127 59 137 65 238 112 314 146 28
12 119 55 204 94 202 95 284 133 416 193 61 28 137 63 170 78 33 15 107 49
165 75 127 57 175 79 258 116 34 16 64 29 66 29 2 0 69 29 148 64 455 202 626
294 808 434 114 88 172 151 214 236 44 90 56 135 56 212 0 117 -26 171 -213
451 -95 142 -188 283 -207 313 -20 30 -75 113 -123 183 -48 71 -87 132 -87
137 0 4 -3 10 -8 12 -4 2 -41 50 -81 108 -108 153 -177 236 -265 318 -21 21
-64 62 -95 92 -50 49 -149 135 -311 270 -29 25 -67 57 -84 73 -63 57 -185 81
-275 55z m121 -137 c4 0 27 -18 51 -38 25 -21 62 -52 83 -69 264 -216 448
-395 558 -544 42 -58 84 -113 92 -123 8 -9 14 -20 14 -23 0 -3 14 -23 30 -44
17 -21 30 -42 30 -48 0 -6 3 -12 8 -14 7 -3 204 -294 211 -312 2 -6 7 -13 10
-16 4 -3 22 -30 41 -60 19 -30 37 -57 40 -60 4 -3 9 -12 13 -20 4 -8 38 -60
77 -115 38 -55 70 -103 70 -106 0 -5 -101 -59 -120 -64 -3 -1 -36 -16 -75 -34
-38 -18 -95 -45 -125 -58 -30 -14 -88 -41 -127 -59 -40 -19 -108 -50 -150 -70
-43 -20 -106 -49 -140 -65 l-61 -29 -94 31 c-161 54 -354 155 -469 245 -67 53
-223 219 -271 289 -133 191 -233 436 -263 640 -3 22 -7 50 -9 63 -2 15 4 26
18 34 38 20 130 95 189 153 111 111 201 262 233 390 28 116 55 141 136 126z
m-2136 -332 c16 -7 31 -13 34 -14 60 -16 154 -78 205 -137 33 -38 101 -165 93
-173 -2 -2 -32 3 -68 11 -87 19 -156 30 -255 40 -81 9 -230 6 -291 -5 -27 -5
-50 -8 -52 -7 -1 2 10 25 24 52 15 27 46 88 71 135 55 105 77 122 154 115 31
-3 69 -11 85 -17z m59 -422 c69 -12 99 -18 101 -20 3 -3 -29 -70 -118 -250
-43 -88 -78 -170 -78 -183 0 -49 71 -81 125 -56 25 11 46 47 138 234 90 185
110 219 125 213 9 -4 24 -8 32 -10 8 -2 27 -8 43 -14 15 -6 40 -13 55 -16 174
-32 214 -37 332 -37 90 0 168 6 235 18 103 18 238 56 300 84 45 20 47 20 50
-12 2 -13 10 -50 19 -84 8 -33 17 -69 19 -80 2 -10 6 -26 9 -34 3 -8 14 -37
23 -65 145 -416 445 -748 842 -931 62 -28 123 -55 135 -58 20 -6 12 -13 -53
-44 -41 -20 -100 -48 -130 -61 -30 -14 -106 -49 -169 -79 -63 -30 -142 -67
-175 -82 -63 -29 -184 -86 -271 -126 -28 -13 -56 -24 -62 -24 -7 0 -12 -4 -12
-10 0 -5 -5 -10 -11 -10 -7 0 -51 -19 -98 -41 -84 -41 -201 -96 -311 -146
-130 -60 -254 -118 -615 -288 -148 -70 -297 -140 -330 -155 -33 -15 -98 -46
-144 -69 -46 -22 -89 -41 -94 -41 -6 0 -18 -6 -26 -13 -9 -8 -38 -23 -66 -35
-27 -11 -113 -51 -190 -88 -77 -38 -142 -69 -145 -69 -3 -1 -50 -23 -105 -49
-198 -96 -382 -180 -535 -246 -41 -17 -93 -40 -115 -50 -65 -29 -303 -124
-410 -164 -55 -21 -109 -41 -120 -46 -95 -36 -154 -57 -310 -109 -158 -52
-398 -124 -456 -137 -10 -2 -28 -6 -39 -8 -11 -3 -24 -7 -28 -10 -5 -3 -22 -8
-38 -10 -50 -10 -75 -15 -92 -20 -16 -5 -38 -10 -99 -21 -16 -3 -50 -10 -76
-15 -86 -18 -91 -16 -120 47 -96 212 -82 415 40 574 23 31 57 69 75 84 18 14
41 33 51 41 9 8 20 14 23 14 3 0 11 6 18 13 7 6 24 20 37 30 77 56 301 219
404 294 252 183 420 319 574 461 32 29 40 32 76 27 164 -25 414 -25 535 0 14
3 39 8 55 11 44 7 238 74 255 88 8 6 33 20 55 31 132 65 312 235 422 400 81
121 313 567 313 601 0 23 -34 63 -54 65 -6 0 -18 2 -27 4 -9 1 -29 -3 -45 -11
-22 -11 -44 -44 -96 -147 -66 -129 -148 -284 -201 -380 -26 -46 -94 -142 -127
-178 -64 -71 -124 -128 -173 -166 -121 -94 -317 -170 -487 -188 -53 -6 -192
-7 -307 -2 l-23 1 23 25 c12 13 40 43 62 66 86 91 132 142 180 200 28 33 52
62 55 65 12 12 120 149 153 195 20 28 41 55 46 62 6 6 46 67 91 135 44 67 85
128 90 135 6 7 10 15 10 17 0 3 19 36 43 73 48 76 200 380 243 488 48 121 143
292 181 325 69 61 151 80 323 75 74 -2 149 -6 165 -8z m3516 -1024 c33 -114 5
-236 -76 -330 -36 -43 -178 -153 -279 -218 -52 -33 -238 -129 -366 -188 -30
-13 -95 -43 -143 -66 -49 -23 -90 -41 -93 -41 -3 0 -30 -11 -60 -25 -30 -14
-82 -37 -117 -51 -73 -31 -126 -55 -222 -100 -38 -18 -110 -50 -160 -72 -49
-22 -126 -57 -170 -77 -232 -109 -268 -125 -272 -125 -2 0 -40 -18 -84 -40
-43 -21 -79 -37 -79 -33 0 3 -6 1 -13 -6 -8 -6 -76 -39 -153 -75 -219 -100
-541 -249 -634 -294 -47 -22 -170 -79 -275 -127 -104 -48 -228 -105 -275 -127
-77 -36 -126 -58 -140 -63 -3 -1 -57 -26 -120 -57 -63 -30 -131 -62 -150 -70
-99 -45 -322 -149 -337 -157 -10 -6 -40 -20 -68 -32 -27 -12 -97 -43 -153 -70
-57 -27 -105 -49 -108 -49 -2 0 -40 -18 -85 -40 -45 -22 -87 -40 -92 -40 -6 0
-18 -6 -26 -13 -9 -8 -34 -21 -56 -30 -22 -8 -87 -38 -145 -65 -307 -145 -463
-211 -543 -227 -10 -2 -26 -6 -35 -9 -42 -13 -156 -27 -242 -30 -190 -8 -384
41 -539 135 -37 22 -131 108 -131 120 0 4 19 10 43 14 23 4 51 9 62 12 11 2
31 6 45 8 56 8 354 87 510 134 208 63 551 182 700 244 65 26 75 30 93 33 10 2
28 10 40 18 12 8 33 17 47 21 14 4 49 18 78 31 29 13 55 24 57 24 6 0 243 104
343 151 46 21 86 39 88 39 2 0 59 26 126 59 248 118 298 141 308 141 5 0 10 5
10 10 0 6 5 10 12 10 6 0 45 17 87 37 42 20 78 37 81 38 3 1 52 24 110 52 100
48 163 78 345 163 219 103 266 124 335 157 41 20 116 55 165 78 126 60 280
133 345 162 30 14 89 41 130 60 41 20 113 53 160 75 47 22 119 56 160 75 104
50 204 96 210 98 6 2 102 47 215 101 44 21 82 38 85 39 5 2 64 29 239 111 51
24 95 44 96 44 2 0 59 26 127 59 68 32 148 70 178 84 125 57 213 98 425 197
44 21 105 49 135 63 30 13 89 41 130 60 41 20 82 36 91 36 11 1 21 -14 30 -46z"/>
</g>
</svg>
